<svg width="107" height="97" viewBox="0 0 107 97" fill="none" xmlns="http://www.w3.org/2000/svg">
<path d="M8.29918 35.1734C15.1693 31.5541 38.8427 22.6832 67.4493 21.2651C103.208 19.4924 24.6989 77.7403 26.1501 85.7219C27.3111 92.1071 75.901 69.9311 98.8955 58.5518" stroke="#AA0000" stroke-width="16" stroke-linecap="round"/>
<path d="M55.1664 76V66.3L53.5664 63.7V45.3C53.5664 42.6333 52.7331 40.6 51.0664 39.2C49.4664 37.8 46.8331 37.1 43.1664 37.1C40.6997 37.1 38.1997 37.5 35.6664 38.3C33.1331 39.0333 30.9664 40.0667 29.1664 41.4L21.9664 26.5C25.1664 24.5 28.9997 22.9667 33.4664 21.9C37.9331 20.8333 42.2997 20.3 46.5664 20.3C55.9664 20.3 63.2331 22.4 68.3664 26.6C73.5664 30.8 76.1664 37.4667 76.1664 46.6V76H55.1664ZM39.6664 77C35.1997 77 31.4664 76.2333 28.4664 74.7C25.4664 73.1667 23.1997 71.1333 21.6664 68.6C20.1331 66 19.3664 63.1333 19.3664 60C19.3664 56.4667 20.2664 53.4667 22.0664 51C23.8664 48.5333 26.5997 46.6667 30.2664 45.4C33.9997 44.1333 38.6997 43.5 44.3664 43.5H55.7664V54.4H47.9664C45.5664 54.4 43.7997 54.8 42.6664 55.6C41.5997 56.3333 41.0664 57.4667 41.0664 59C41.0664 60.2667 41.5331 61.3333 42.4664 62.2C43.4664 63 44.7997 63.4 46.4664 63.4C47.9997 63.4 49.3997 63 50.6664 62.2C51.9997 61.3333 52.9664 60 53.5664 58.2L56.4664 64.9C55.5997 68.9667 53.7664 72 50.9664 74C48.1664 76 44.3997 77 39.6664 77Z" fill="#EEEEEE"/>
</svg>
