<svg width="179" height="100" viewBox="0 0 179 100" fill="none" xmlns="http://www.w3.org/2000/svg">
<path d="M33 34.5C40.3333 29.1667 66.2 14.9581 99 8.55813C140 0.558133 59 81.0581 62 90.0581C64.4 97.2581 116.833 63.5 141.5 46.5" stroke="#AA0000" stroke-width="16" stroke-linecap="round"/>
<path d="M25.1731 62V55.695L24.1331 54.005V42.045C24.1331 40.3117 23.5914 38.99 22.5081 38.08C21.4681 37.17 19.7564 36.715 17.3731 36.715C15.7698 36.715 14.1448 36.975 12.4981 37.495C10.8514 37.9717 9.4431 38.6433 8.2731 39.51L3.5931 29.825C5.6731 28.525 8.16477 27.5283 11.0681 26.835C13.9714 26.1417 16.8098 25.795 19.5831 25.795C25.6931 25.795 30.4164 27.16 33.7531 29.89C37.1331 32.62 38.8231 36.9533 38.8231 42.89V62H25.1731ZM15.0981 62.65C12.1948 62.65 9.7681 62.1517 7.8181 61.155C5.8681 60.1583 4.39477 58.8367 3.3981 57.19C2.40144 55.5 1.9031 53.6367 1.9031 51.6C1.9031 49.3033 2.4881 47.3533 3.6581 45.75C4.8281 44.1467 6.60477 42.9333 8.9881 42.11C11.4148 41.2867 14.4698 40.875 18.1531 40.875H25.5631V47.96H20.4931C18.9331 47.96 17.7848 48.22 17.0481 48.74C16.3548 49.2167 16.0081 49.9533 16.0081 50.95C16.0081 51.7733 16.3114 52.4667 16.9181 53.03C17.5681 53.55 18.4348 53.81 19.5181 53.81C20.5148 53.81 21.4248 53.55 22.2481 53.03C23.1148 52.4667 23.7431 51.6 24.1331 50.43L26.0181 54.785C25.4548 57.4283 24.2631 59.4 22.4431 60.7C20.6231 62 18.1748 62.65 15.0981 62.65ZM68.5718 25.795C71.3018 25.795 73.7718 26.3583 75.9818 27.485C78.1918 28.5683 79.9251 30.28 81.1818 32.62C82.4818 34.96 83.1318 37.9933 83.1318 41.72V62H68.4418V44.255C68.4418 42.045 68.0518 40.485 67.2718 39.575C66.4918 38.6217 65.4301 38.145 64.0868 38.145C63.0901 38.145 62.1584 38.3833 61.2918 38.86C60.4684 39.2933 59.7968 40.03 59.2768 41.07C58.8001 42.11 58.5618 43.5183 58.5618 45.295V62H43.8718V26.445H57.8468V36.845L55.0518 33.855C56.4384 31.1683 58.3018 29.1533 60.6418 27.81C63.0251 26.4667 65.6684 25.795 68.5718 25.795ZM88.2114 62V26.445H102.901V62H88.2114ZM95.5564 23.585C92.8698 23.585 90.7248 22.87 89.1214 21.44C87.5181 20.01 86.7164 18.2333 86.7164 16.11C86.7164 13.9867 87.5181 12.21 89.1214 10.78C90.7248 9.35 92.8698 8.635 95.5564 8.635C98.2431 8.635 100.388 9.30666 101.991 10.65C103.595 11.9933 104.396 13.7267 104.396 15.85C104.396 18.1033 103.595 19.9667 101.991 21.44C100.388 22.87 98.2431 23.585 95.5564 23.585ZM108.113 62V26.445H122.088V37.17L119.813 34.115C120.896 31.3417 122.629 29.2617 125.013 27.875C127.396 26.4883 130.256 25.795 133.593 25.795V38.795C132.943 38.7083 132.358 38.6433 131.838 38.6C131.361 38.5567 130.863 38.535 130.343 38.535C128.133 38.535 126.313 39.12 124.883 40.29C123.496 41.4167 122.803 43.3883 122.803 46.205V62H108.113ZM151.276 62.65C148.459 62.65 145.903 62.0867 143.606 60.96C141.353 59.79 139.576 57.9917 138.276 55.565C136.976 53.095 136.326 49.9317 136.326 46.075V26.445H151.016V43.54C151.016 46.0533 151.428 47.8083 152.251 48.805C153.074 49.8017 154.201 50.3 155.631 50.3C156.498 50.3 157.299 50.0833 158.036 49.65C158.816 49.1733 159.444 48.415 159.921 47.375C160.398 46.2917 160.636 44.8833 160.636 43.15V26.445H175.326V62H161.351V51.73L164.146 54.525C162.889 57.2983 161.091 59.3567 158.751 60.7C156.454 62 153.963 62.65 151.276 62.65Z" fill="#EEEEEE"/>
</svg>
