<svg width="140" height="50" viewBox="0 0 140 50" fill="none" xmlns="http://www.w3.org/2000/svg">
<rect x="75.1709" y="5" width="64.0822" height="15.9312" rx="2.68244" transform="rotate(7.83366 75.1709 5)" fill="#609EE4"/>
<path d="M127.009 25.5054C126.677 25.4598 126.345 25.3614 126.013 25.2105C125.686 25.0679 125.431 24.9012 125.247 24.7105L126.313 23.1096C126.425 23.2227 126.555 23.3195 126.701 23.3998C126.856 23.4812 127.006 23.532 127.154 23.5523C127.375 23.5827 127.552 23.5581 127.683 23.4785C127.813 23.4062 127.928 23.2829 128.027 23.1086L128.37 22.5019L128.58 22.2828L131.195 17.6141L133.563 17.9399L130.224 23.7718C129.927 24.2946 129.609 24.6906 129.272 24.9598C128.941 25.2301 128.587 25.403 128.208 25.4787C127.837 25.5554 127.437 25.5643 127.009 25.5054ZM127.868 23.6054L126.105 16.9138L128.673 17.267L129.839 22.2305L127.868 23.6054Z" fill="white"/>
<path d="M123.452 16.4359C123.909 16.4989 124.305 16.6511 124.64 16.8926C124.984 17.1278 125.231 17.4587 125.383 17.8855C125.542 18.3133 125.578 18.8444 125.491 19.4788L125.016 22.9311L122.515 22.5871L122.931 19.5663C122.983 19.1901 122.956 18.9159 122.852 18.7437C122.749 18.5642 122.598 18.4607 122.399 18.4333C122.251 18.413 122.114 18.4316 121.985 18.4891C121.857 18.5467 121.745 18.6515 121.649 18.8036C121.561 18.9494 121.499 19.1588 121.461 19.4317L121.055 22.3861L118.554 22.0421L118.969 19.0213C119.021 18.6451 118.999 18.3714 118.902 18.2002C118.806 18.0217 118.651 17.9177 118.438 17.8883C118.29 17.868 118.152 17.8866 118.024 17.9441C117.896 18.0017 117.784 18.1065 117.688 18.2586C117.6 18.4044 117.537 18.6138 117.5 18.8867L117.093 21.8411L114.592 21.4971L115.425 15.4444L117.804 15.7717L117.565 17.5089L117.145 16.9551C117.437 16.5292 117.79 16.232 118.204 16.0634C118.619 15.8875 119.062 15.8321 119.535 15.897C120.066 15.9701 120.515 16.1747 120.882 16.5108C121.258 16.8406 121.474 17.3139 121.532 17.9307L120.785 17.7039C121.076 17.2328 121.45 16.886 121.91 16.6635C122.377 16.4347 122.891 16.3588 123.452 16.4359Z" fill="white"/>
<path d="M110.689 21.0729C109.951 20.9714 109.325 20.7462 108.809 20.3971C108.301 20.0491 107.928 19.6182 107.69 19.1044C107.454 18.5833 107.377 18.024 107.459 17.4265C107.543 16.8142 107.765 16.2923 108.125 15.8608C108.493 15.4303 108.953 15.1178 109.506 14.9233C110.066 14.7298 110.671 14.6777 111.32 14.767C111.917 14.8492 112.451 15.0428 112.92 15.3479C113.396 15.654 113.754 16.0602 113.992 16.5666C114.238 17.0739 114.314 17.6706 114.22 18.3567C114.207 18.4452 114.19 18.5443 114.168 18.6539C114.146 18.7562 114.125 18.8511 114.106 18.9386L109.447 18.2976L109.613 17.0915L112.944 17.5498L111.959 17.7413C111.992 17.5052 111.975 17.2999 111.909 17.1255C111.851 16.9446 111.754 16.7998 111.619 16.691C111.485 16.5748 111.314 16.5025 111.108 16.4741C110.901 16.4457 110.714 16.4687 110.546 16.5433C110.386 16.6115 110.254 16.7249 110.149 16.8834C110.046 17.0345 109.978 17.2281 109.945 17.4642L109.894 17.8404C109.858 18.0986 109.879 18.327 109.957 18.5256C110.035 18.7243 110.163 18.8847 110.342 19.007C110.522 19.1219 110.748 19.1981 111.021 19.2357C111.301 19.2743 111.535 19.2688 111.722 19.2194C111.917 19.171 112.124 19.0868 112.343 18.9666L113.468 20.463C113.129 20.7396 112.73 20.9328 112.272 21.0426C111.821 21.1461 111.294 21.1562 110.689 21.0729Z" fill="white"/>
<path d="M102.201 19.9051C101.677 19.833 101.208 19.6406 100.792 19.3279C100.385 19.0088 100.081 18.5986 99.8793 18.0974C99.6787 17.5887 99.623 17.0098 99.7123 16.3607C99.8016 15.7115 100.011 15.1728 100.341 14.7446C100.671 14.309 101.075 13.9963 101.552 13.8064C102.037 13.6175 102.541 13.559 103.064 13.6311C103.596 13.7042 104.015 13.8784 104.323 14.1538C104.632 14.4218 104.835 14.7993 104.934 15.2863C105.033 15.766 105.034 16.3637 104.935 17.0792C104.836 17.8021 104.677 18.3853 104.458 18.8287C104.246 19.2732 103.956 19.5827 103.586 19.7573C103.223 19.933 102.762 19.9822 102.201 19.9051ZM103.067 18.0398C103.251 18.0652 103.423 18.0438 103.583 17.9755C103.743 17.9073 103.879 17.7908 103.992 17.6259C104.106 17.4537 104.18 17.2384 104.216 16.9803C104.252 16.7147 104.238 16.491 104.173 16.3091C104.109 16.1199 104.009 15.9709 103.874 15.8621C103.738 15.7533 103.578 15.6862 103.394 15.6608C103.21 15.6354 103.037 15.6568 102.878 15.7251C102.718 15.7933 102.582 15.9098 102.469 16.0747C102.357 16.2322 102.283 16.4437 102.246 16.7093C102.211 16.9675 102.225 17.1949 102.288 17.3915C102.352 17.5807 102.452 17.7297 102.587 17.8385C102.722 17.9473 102.882 18.0144 103.067 18.0398ZM103.876 20.0228L103.989 19.204L104.282 16.9894L104.476 14.7611L104.884 11.7956L107.385 12.1397L106.255 20.3501L103.876 20.0228Z" fill="white"/>
<path d="M96.048 18.9458L96.1956 17.8724L96.0582 17.5604L96.3383 15.5244C96.3789 15.2293 96.3176 14.9916 96.1545 14.8113C95.9988 14.6321 95.7181 14.5145 95.3123 14.4587C95.0394 14.4212 94.7567 14.4274 94.4642 14.4773C94.1727 14.5199 93.9172 14.6012 93.6977 14.7214L93.1279 12.9631C93.5124 12.7905 93.9599 12.6792 94.4704 12.6291C94.9809 12.5791 95.4722 12.5866 95.9443 12.6515C96.9844 12.7946 97.7565 13.1376 98.2606 13.6805C98.7721 14.2244 98.9583 15.0017 98.8192 16.0123L98.3717 19.2655L96.048 18.9458ZM94.3176 18.8204C93.8234 18.7524 93.4219 18.6108 93.1133 18.3954C92.8047 18.1801 92.5849 17.9206 92.4538 17.6169C92.3237 17.3059 92.2825 16.977 92.3302 16.6303C92.384 16.2393 92.5292 15.9211 92.766 15.6756C93.0027 15.43 93.3336 15.2651 93.7586 15.1807C94.1909 15.0974 94.7207 15.0989 95.3477 15.1852L96.6091 15.3587L96.4432 16.5648L95.5801 16.4461C95.3145 16.4095 95.113 16.4269 94.9754 16.4982C94.8462 16.5631 94.7699 16.6804 94.7466 16.85C94.7273 16.9902 94.7627 17.1153 94.8528 17.2254C94.9512 17.3292 95.0927 17.3937 95.2771 17.4191C95.4468 17.4424 95.6078 17.4195 95.7601 17.3503C95.9208 17.2747 96.0481 17.1418 96.1419 16.9518L96.3608 17.7373C96.203 18.1741 95.9539 18.4818 95.6137 18.6605C95.2734 18.8392 94.8414 18.8925 94.3176 18.8204Z" fill="white"/>
<path d="M88.8154 18.0636C88.122 17.9682 87.5243 17.7506 87.0223 17.411C86.5203 17.0713 86.1469 16.6441 85.902 16.1294C85.6655 15.6083 85.5894 15.0416 85.6737 14.4293C85.7579 13.817 85.9837 13.2956 86.3511 12.8651C86.7259 12.4356 87.2008 12.1252 87.7759 11.9337C88.3509 11.7422 88.9851 11.6942 89.6786 11.7896C90.4162 11.8911 91.0251 12.1364 91.5052 12.5257C91.9854 12.915 92.2864 13.4036 92.4085 13.9917L90.3411 14.6769C90.2543 14.3793 90.1273 14.1551 89.9601 14.0043C89.8003 13.8546 89.6135 13.765 89.3996 13.7355C89.2151 13.7102 89.0357 13.7306 88.8612 13.7968C88.6941 13.864 88.5505 13.9795 88.4302 14.1434C88.3183 14.3008 88.2441 14.5124 88.2076 14.7779C88.1711 15.0435 88.1849 15.2709 88.249 15.4601C88.3206 15.6504 88.4277 15.8004 88.5704 15.9102C88.7206 16.0211 88.8878 16.0892 89.0722 16.1146C89.2862 16.144 89.4903 16.1082 89.6846 16.0071C89.8863 15.9071 90.0691 15.7256 90.2331 15.4625L92.0385 16.6805C91.7622 17.2137 91.3404 17.6029 90.773 17.8481C90.2056 18.0932 89.5531 18.165 88.8154 18.0636Z" fill="white"/>
<path d="M82.0655 17.0221L82.2132 15.9487L82.0757 15.6367L82.3559 13.6007C82.3965 13.3056 82.3352 13.0679 82.1721 12.8876C82.0164 12.7084 81.7356 12.5908 81.3299 12.535C81.057 12.4975 80.7743 12.5037 80.4818 12.5536C80.1903 12.5962 79.9348 12.6775 79.7153 12.7977L79.1455 11.0393C79.53 10.8668 79.9775 10.7554 80.488 10.7054C80.9985 10.6554 81.4898 10.6629 81.9619 10.7278C83.002 10.8709 83.7741 11.2139 84.2782 11.7568C84.7896 12.3007 84.9759 13.078 84.8368 14.0886L84.3892 17.3418L82.0655 17.0221ZM80.3352 16.8967C79.841 16.8287 79.4395 16.6871 79.1309 16.4717C78.8223 16.2564 78.6024 15.9969 78.4713 15.6932C78.3413 15.3822 78.3001 15.0533 78.3478 14.7066C78.4016 14.3156 78.5468 13.9974 78.7835 13.7518C79.0203 13.5063 79.3511 13.3414 79.7761 13.257C80.2085 13.1737 80.7382 13.1752 81.3653 13.2614L82.6267 13.435L82.4608 14.6411L81.5977 14.5224C81.3321 14.4858 81.1305 14.5032 80.9929 14.5745C80.8638 14.6394 80.7875 14.7566 80.7641 14.9263C80.7449 15.0665 80.7803 15.1916 80.8703 15.3017C80.9688 15.4055 81.1103 15.47 81.2947 15.4954C81.4643 15.5187 81.6254 15.4958 81.7777 15.4266C81.9384 15.351 82.0657 15.2181 82.1595 15.0281L82.3784 15.8136C82.2206 16.2504 81.9715 16.5581 81.6312 16.7368C81.291 16.9155 80.859 16.9688 80.3352 16.8967Z" fill="white"/>
<path d="M116.241 44.3788C113.716 44.3788 111.506 43.9116 109.612 42.9773C107.743 42.043 106.291 40.7677 105.256 39.1516C104.221 37.5102 103.703 35.6668 103.703 33.6214C103.703 31.5255 104.208 29.6694 105.218 28.0533C106.254 26.4372 107.655 25.1745 109.423 24.2655C111.216 23.3564 113.223 22.9019 115.445 22.9019C117.491 22.9019 119.372 23.3059 121.089 24.114C122.832 24.922 124.22 26.1215 125.256 27.7124C126.316 29.3033 126.847 31.2729 126.847 33.6214C126.847 33.9244 126.834 34.2653 126.809 34.6441C126.784 34.9976 126.758 35.3259 126.733 35.6289H110.786V31.5002H122.188L118.968 32.5987C118.968 31.7906 118.817 31.1088 118.513 30.5532C118.236 29.9724 117.844 29.5305 117.339 29.2275C116.834 28.8992 116.228 28.7351 115.521 28.7351C114.814 28.7351 114.195 28.8992 113.665 29.2275C113.16 29.5305 112.769 29.9724 112.491 30.5532C112.213 31.1088 112.074 31.7906 112.074 32.5987V33.8865C112.074 34.7703 112.251 35.5279 112.604 36.1592C112.958 36.7905 113.463 37.2703 114.12 37.5986C114.776 37.9016 115.572 38.0531 116.506 38.0531C117.466 38.0531 118.248 37.9269 118.854 37.6743C119.486 37.4218 120.142 37.043 120.824 36.538L125.294 41.0455C124.284 42.1313 123.034 42.9647 121.544 43.5455C120.079 44.101 118.311 44.3788 116.241 44.3788Z" fill="white"/>
<path d="M92.4599 22.9019C94.0256 22.9019 95.4271 23.2301 96.6644 23.8867C97.927 24.518 98.9118 25.5154 99.6189 26.8791C100.351 28.2427 100.717 30.0103 100.717 32.182V44H92.1569V33.6593C92.1569 32.3714 91.9423 31.4623 91.513 30.932C91.0837 30.3765 90.5281 30.0987 89.8463 30.0987C89.3413 30.0987 88.8868 30.225 88.4827 30.4775C88.0787 30.73 87.7504 31.134 87.4979 31.6896C87.2706 32.2199 87.157 32.9522 87.157 33.8865V44H78.5965V33.6593C78.5965 32.3714 78.3945 31.4623 77.9905 30.932C77.5864 30.3765 77.0183 30.0987 76.2859 30.0987C75.7809 30.0987 75.3264 30.225 74.9223 30.4775C74.5183 30.73 74.19 31.134 73.9375 31.6896C73.7102 32.2199 73.5966 32.9522 73.5966 33.8865V44H65.0361V23.2806H73.1799V29.2275L71.5133 27.5609C72.2961 25.9952 73.3441 24.8336 74.6572 24.0761C75.9703 23.2933 77.4349 22.9019 79.0511 22.9019C80.8692 22.9019 82.4727 23.3816 83.8616 24.3412C85.2757 25.2756 86.2227 26.7654 86.7024 28.8108L84.0889 28.3942C84.8464 26.677 85.9449 25.3387 87.3843 24.3791C88.8489 23.3943 90.5408 22.9019 92.4599 22.9019Z" fill="white"/>
<path d="M52.6817 44V23.2806H61.2422V44H52.6817ZM56.962 21.614C55.3963 21.614 54.1464 21.1973 53.212 20.364C52.2777 19.5307 51.8105 18.4953 51.8105 17.258C51.8105 16.0206 52.2777 14.9853 53.212 14.152C54.1464 13.3186 55.3963 12.902 56.962 12.902C58.5276 12.902 59.7776 13.2934 60.7119 14.0762C61.6462 14.859 62.1134 15.8691 62.1134 17.1065C62.1134 18.4196 61.6462 19.5054 60.7119 20.364C59.7776 21.1973 58.5276 21.614 56.962 21.614Z" fill="white"/>
<path d="M40.4796 22.9019C42.0705 22.9019 43.5099 23.2301 44.7978 23.8867C46.0856 24.518 47.0957 25.5154 47.828 26.8791C48.5856 28.2427 48.9644 30.0103 48.9644 32.182V44H40.4039V33.6593C40.4039 32.3714 40.1766 31.4623 39.7221 30.932C39.2675 30.3765 38.6489 30.0987 37.866 30.0987C37.2852 30.0987 36.7423 30.2376 36.2373 30.5154C35.7575 30.7679 35.3661 31.1972 35.0631 31.8032C34.7853 32.4093 34.6464 33.23 34.6464 34.2653V44H26.0859V23.2806H34.2297V29.3411L32.601 27.5987C33.409 26.0331 34.4949 24.8589 35.8585 24.0761C37.2474 23.2933 38.7877 22.9019 40.4796 22.9019Z" fill="white"/>
<path d="M14.4315 44V40.3258L13.8254 39.341V32.3714C13.8254 31.3613 13.5098 30.5911 12.8785 30.0608C12.2724 29.5305 11.275 29.2654 9.8861 29.2654C8.95177 29.2654 8.00481 29.4169 7.04523 29.7199C6.08565 29.9977 5.26496 30.3891 4.58315 30.8941L1.85593 25.2503C3.06803 24.4927 4.52002 23.9119 6.21192 23.5079C7.90381 23.1039 9.55782 22.9019 11.174 22.9019C14.7345 22.9019 17.487 23.6973 19.4314 25.2882C21.4011 26.8791 22.3859 29.4043 22.3859 32.8638V44H14.4315ZM8.56036 44.3788C6.86847 44.3788 5.45435 44.0884 4.31801 43.5076C3.18166 42.9268 2.32309 42.1566 1.74229 41.197C1.16149 40.2122 0.871094 39.1263 0.871094 37.9395C0.871094 36.6011 1.212 35.4648 1.8938 34.5305C2.57561 33.5961 3.61095 32.8891 4.99981 32.4093C6.41393 31.9295 8.19421 31.6896 10.3406 31.6896H14.6587V35.8183H11.7042C10.7952 35.8183 10.126 35.9698 9.69671 36.2728C9.29267 36.5506 9.09066 36.9799 9.09066 37.5607C9.09066 38.0405 9.26742 38.4445 9.62095 38.7728C9.99973 39.0758 10.5048 39.2273 11.1361 39.2273C11.7169 39.2273 12.2472 39.0758 12.727 38.7728C13.232 38.4445 13.5982 37.9395 13.8254 37.2577L14.9239 39.7955C14.5956 41.3359 13.9012 42.4849 12.8406 43.2424C11.78 44 10.3533 44.3788 8.56036 44.3788Z" fill="white"/>
</svg>
