<svg width="79" height="79" viewBox="0 0 79 79" fill="none" xmlns="http://www.w3.org/2000/svg">
<rect width="79" height="79" rx="10" fill="#609EE4"/>
<path d="M45.493 61.2064V53.5079L44.1972 51.4444V36.8413C44.1972 34.7249 43.5223 33.1111 42.1725 32C40.8768 30.8889 38.7441 30.3333 35.7747 30.3333C33.777 30.3333 31.7523 30.6508 29.7007 31.2857C27.6491 31.8677 25.8944 32.6878 24.4366 33.746L18.6056 21.9206C21.1972 20.3333 24.3016 19.1164 27.919 18.2698C31.5364 17.4233 35.0728 17 38.5282 17C46.1409 17 52.0258 18.6667 56.1831 22C60.3944 25.3333 62.5 30.6243 62.5 37.873V61.2064H45.493ZM32.9401 62C29.3228 62 26.2993 61.3915 23.8697 60.1746C21.4401 58.9577 19.6045 57.3439 18.3627 55.3333C17.1209 53.2698 16.5 50.9947 16.5 48.5079C16.5 45.7037 17.2289 43.3228 18.6866 41.3651C20.1444 39.4074 22.358 37.9259 25.3275 36.9206C28.3509 35.9153 32.1573 35.4127 36.7465 35.4127H45.9789V44.0635H39.662C37.7183 44.0635 36.2876 44.381 35.3697 45.0159C34.5059 45.5979 34.0739 46.4974 34.0739 47.7143C34.0739 48.7196 34.4519 49.5661 35.2077 50.254C36.0176 50.8889 37.0974 51.2064 38.4472 51.2064C39.689 51.2064 40.8228 50.8889 41.8486 50.254C42.9284 49.5661 43.7113 48.5079 44.1972 47.0794L46.5458 52.3968C45.8439 55.6243 44.3592 58.0317 42.0916 59.619C39.8239 61.2063 36.7735 62 32.9401 62Z" fill="white"/>
</svg>
