<svg width="64" height="64" viewBox="0 0 64 64" fill="none" xmlns="http://www.w3.org/2000/svg">
<path d="M0 51.415V62.2225C0 63.2179 0.782116 64 1.77754 64H12.585C13.0471 64 13.5093 63.8222 13.8292 63.4667L51.2351 26.0951C52.0168 25.3142 52.0171 24.0473 51.2358 23.266L40.7333 12.7636C39.9523 11.9825 38.6859 11.9825 37.9049 12.7636L0.533261 50.1352C0.177754 50.4907 0 50.9173 0 51.415ZM62.9603 14.3712C63.2899 14.0423 63.5514 13.6516 63.7298 13.2216C63.9082 12.7915 64 12.3305 64 11.8649C64 11.3993 63.9082 10.9382 63.7298 10.5082C63.5514 10.0781 63.2899 9.68742 62.9603 9.35853L54.6415 1.03966C54.3126 0.710092 53.9219 0.448625 53.4919 0.270226C53.0618 0.0918274 52.6008 0 52.1351 0C51.6695 0 51.2085 0.0918274 50.7784 0.270226C50.3484 0.448625 49.9577 0.710092 49.6288 1.03966L44.5372 6.13123C43.7562 6.91228 43.7562 8.17861 44.5372 8.95966L55.0403 19.4628C55.8214 20.2438 57.0877 20.2438 57.8688 19.4628L62.9603 14.3712Z" fill="#EEEEEE"/>
</svg>
