<svg width="256" height="256" viewBox="0 0 256 256" fill="none" xmlns="http://www.w3.org/2000/svg">
<path d="M149.333 128V212.053C149.76 215.253 148.693 218.667 146.24 220.907C145.253 221.896 144.081 222.68 142.791 223.215C141.5 223.751 140.117 224.026 138.72 224.026C137.323 224.026 135.94 223.751 134.649 223.215C133.359 222.68 132.187 221.896 131.2 220.907L109.76 199.467C108.597 198.329 107.713 196.938 107.177 195.402C106.64 193.867 106.466 192.228 106.667 190.613V128H106.347L44.9067 49.28C43.1745 47.0563 42.3929 44.2374 42.7327 41.4393C43.0725 38.6411 44.506 36.0912 46.7201 34.3467C48.7467 32.8533 50.9867 32 53.3334 32H202.667C205.013 32 207.253 32.8533 209.28 34.3467C211.494 36.0912 212.928 38.6411 213.267 41.4393C213.607 44.2374 212.826 47.0563 211.093 49.28L149.653 128H149.333Z" fill="white"/>
</svg>
