<svg width="67" height="64" viewBox="0 0 67 64" fill="none" xmlns="http://www.w3.org/2000/svg">
<path d="M31 31.8947L62.6632 31.8947M62.6632 31.8947L52.5147 42M62.6632 31.8947L52.5147 21.7895" stroke="white" stroke-width="8" stroke-linecap="round" stroke-linejoin="round"/>
<path fill-rule="evenodd" clip-rule="evenodd" d="M8 0C3.58172 0 0 3.58172 0 8V56C0 60.4183 3.58172 64 8 64H35C39.4183 64 43 60.4183 43 56V41.7209H31.3993C26.2082 41.7209 22 37.3687 22 32C22 26.6313 26.2082 22.2791 31.3993 22.2791L43 22.2791V8C43 3.58172 39.4183 0 35 0H8Z" fill="white"/>
</svg>
