<svg width="72" height="64" viewBox="0 0 72 64" fill="none" xmlns="http://www.w3.org/2000/svg">
<g clip-path="url(#clip0_170_157)">
<path d="M62.6683 36.1094L41.4235 57.358C40.015 58.7661 38.1048 59.5572 36.1132 59.5572C34.1216 59.5572 32.2114 58.7661 30.8029 57.358L9.55808 36.1132C7.80189 34.3723 6.40685 32.3017 5.45305 30.0203C4.49924 27.7388 4.00546 25.2914 4.00005 22.8186C3.99463 20.3458 4.47769 17.8963 5.42149 15.6107C6.3653 13.325 7.75126 11.2483 9.4998 9.4998C11.2483 7.75126 13.325 6.3653 15.6107 5.42149C17.8963 4.47769 20.3458 3.99463 22.8186 4.00005C25.2914 4.00546 27.7388 4.49924 30.0203 5.45305C32.3017 6.40685 34.3723 7.80189 36.1132 9.55808C39.6493 6.11004 44.4014 4.19397 49.3402 4.22491C54.279 4.25586 59.0067 6.23133 62.4993 9.7234C65.9918 13.2155 67.968 17.9429 67.9996 22.8817C68.0313 27.8205 66.1159 32.5729 62.6683 36.1094Z" fill="white" stroke="white" stroke-width="8" stroke-linecap="round" stroke-linejoin="round"/>
</g>
<defs>
<clipPath id="clip0_170_157">
<rect width="72" height="64" fill="white"/>
</clipPath>
</defs>
</svg>
