<svg width="18" height="20" viewBox="0 0 18 20" fill="none" xmlns="http://www.w3.org/2000/svg">
<path fill-rule="evenodd" clip-rule="evenodd" d="M12.4659 8.34335C12.4659 10.8882 10.4028 12.9513 7.85793 12.9513C5.31304 12.9513 3.25 10.8882 3.25 8.34335C3.25 5.79845 5.31304 3.73541 7.85793 3.73541C10.4028 3.73541 12.4659 5.79845 12.4659 8.34335ZM11.4466 15.0534C10.3776 15.6263 9.1557 15.9513 7.85793 15.9513C3.65619 15.9513 0.25 12.5451 0.25 8.34335C0.25 4.1416 3.65619 0.735413 7.85793 0.735413C12.0597 0.735413 15.4659 4.1416 15.4659 8.34335C15.4659 10.1586 14.8301 11.8254 13.7691 13.1332L17.3107 16.6748C17.8964 17.2605 17.8964 18.2103 17.3107 18.7961C16.7249 19.3819 15.7751 19.3819 15.1893 18.7961L11.4466 15.0534Z" fill="#7A7A7A"/>
</svg>
