<svg width="24" height="23" viewBox="0 0 24 23" fill="none" xmlns="http://www.w3.org/2000/svg">
<path d="M12.9087 0.58242C12.5301 -0.19414 11.4699 -0.19414 11.0913 0.58242L8.26025 6.38884C8.11202 6.69286 7.83385 6.9044 7.5118 6.95801L1.361 7.9819C0.538379 8.11884 0.210783 9.17414 0.799394 9.79102L5.20051 14.4035C5.43095 14.645 5.5372 14.9873 5.48639 15.3244L4.51604 21.7636C4.38627 22.6248 5.24392 23.277 5.98633 22.8817L11.5374 19.926C11.8281 19.7712 12.1719 19.7712 12.4626 19.926L18.0137 22.8817C18.7561 23.277 19.6137 22.6248 19.484 21.7636L18.5136 15.3244C18.4628 14.9873 18.5691 14.645 18.7995 14.4035L23.2006 9.79102C23.7892 9.17414 23.4616 8.11884 22.639 7.9819L16.4882 6.95801C16.1661 6.90439 15.888 6.69286 15.7397 6.38884L12.9087 0.58242Z" fill="#EEEEEE"/>
</svg>
